# xmcd
#
# Track frame offsets:
#  225
#  12183
#  24264
#  35532
#  48378
#  62558
#  70551
#  83945
#  92410
#  100383
#  110964
#  125116
#  137664
#  148456
#  161110
#
# Disc length: 2290 seconds
#
# Revision: 0
# Processed by: cddbd v1.5.1PL0 Copyright (c) Steve Scherf et al.
# Submitted via: Collectorz.com Music Collector 6.9
#
DISCID=d408ef0f
DTITLE=Ricky Skaggs - Are You Proud Of America
DYEAR=1900
DGENRE=
TTITLE0=Are You Proud Of America
TTITLE1=Darkest Hour Just Before Dawn
TTITLE2=Keep My Love With You
TTITLE3=Shouting On The Hills Of Glory
TTITLE4=Another Song, Another Drink
TTITLE5=Lets Keep Old Glory Waving
TTITLE6=White Dove
TTITLE7=A Few More seasons To Come
TTITLE8=Buck Wheat
TTITLE9=Wings Of angels
TTITLE10=Let Me Walk Lord By Your Side
TTITLE11=Working On A Building
TTITLE12=In Heaven We'll Never Grow old
TTITLE13=Rock Bottom
TTITLE14=You're Going Away
EXTD=
EXTT0=
EXTT1=
EXTT2=
EXTT3=
EXTT4=
EXTT5=
EXTT6=
EXTT7=
EXTT8=
EXTT9=
EXTT10=
EXTT11=
EXTT12=
EXTT13=
EXTT14=
PLAYORDER=
